<svg xmlns="http://www.w3.org/2000/svg" width="24" height="24"><path fill-rule="evenodd" d="M23.4493 5.8385c.1668-.5564 0-.9652-.794-.9652h-2.6256c-.6676 0-.9754.3532-1.1423.7426 0 0-1.3353 3.2545-3.2268 5.3686-.612.612-.8901.8066-1.224.8066-.1668 0-.4172-.1947-.4172-.751V5.8385c0-.6676-.185-.9652-.7413-.9652H9.152c-.4172 0-.668.3099-.668.6036 0 .6328.9456.7788 1.0431 2.559v3.8666c0 .8477-.153 1.0014-.4869 1.0014-.89 0-3.0552-3.2691-4.3394-7.0098-.2516-.727-.504-1.0208-1.175-1.0208H.9001C.15 4.8733 0 5.2265 0 5.616c0 .6954.8901 4.1447 4.1446 8.7066 2.1697 3.1154 5.2266 4.8042 8.0082 4.8042 1.669 0 1.8755-.3751 1.8755-1.0212v-2.3546c0-.7502.158-.9.6866-.9.3894 0 1.057.1948 2.6148 1.6969 1.7802 1.7802 2.0737 2.5789 3.075 2.5789h2.6257c.7501 0 1.1252-.3751.9088-1.1153-.2368-.7378-1.0867-1.8081-2.2145-3.077-.612-.7232-1.53-1.502-1.8082-1.8915-.3894-.5007-.2781-.7232 0-1.1683 0 0 3.199-4.5062 3.5328-6.0361z"/></svg>