<svg xmlns="http://www.w3.org/2000/svg" width="23" height="23"><path d="M12.01 19.435l-4.719-.087c-1.528-.03-3.06.03-4.557-.281C.455 18.6.294 16.319.124 14.404a32.707 32.707 0 0 1 .297-8.1c.248-1.499 1.224-2.392 2.733-2.49 5.094-.353 10.222-.311 15.305-.146.537.015 1.078.098 1.607.191 2.613.458 2.676 3.045 2.845 5.222.17 2.2.098 4.411-.225 6.596-.259 1.81-.754 3.326-2.845 3.472-2.62.192-5.18.346-7.809.297 0-.011-.015-.011-.022-.011zm-2.774-4.58c1.974-1.134 3.911-2.249 5.875-3.375-1.979-1.134-3.912-2.249-5.875-3.375v6.75z"/></svg>